<?xml version="1.0" encoding="UTF-8"?>
<svg xmlns="http://www.w3.org/2000/svg" xmlns:xlink="http://www.w3.org/1999/xlink" width="4000px" height="4000px" viewBox="0 0 4000 4000" version="1.1">
<g id="surface1">
<path style=" stroke:none;fill-rule:nonzero;fill:rgb(0%,0%,0%);fill-opacity:1;" d="M 2000 122.5 C 1086.25 122.5 343.125 865.625 343.125 1779.375 C 343.125 2444.375 736.875 3040.625 1348.125 3302.5 L 1865.625 3821.875 C 1902.5 3858.75 1951.25 3877.5 2000 3877.5 C 2048.75 3877.5 2097.5 3858.75 2134.375 3821.875 L 2651.875 3302.5 C 3262.5 3041.25 3656.875 2445 3656.875 1779.375 C 3656.875 865.625 2913.75 122.5 2000 122.5 Z M 1797.5 2815.625 L 1797.5 1522.5 C 1797.5 1410.625 1888.125 1320 2000 1320 C 2111.875 1320 2202.5 1410.625 2202.5 1522.5 L 2202.5 2815.625 C 2202.5 2928.125 2111.875 3020 2000 3020 C 1888.125 3020 1797.5 2928.125 1797.5 2815.625 Z M 2000 1118.75 C 1854.375 1118.75 1735.625 999.375 1735.625 852.5 C 1735.625 705.625 1854.375 588.125 2000 588.125 C 2145.625 588.125 2264.375 706.875 2264.375 852.5 C 2264.375 998.125 2145.625 1118.75 2000 1118.75 Z M 2000 1118.75 "/>
</g>
</svg>
