<?xml version="1.0" encoding="utf-8" ?>
<svg xmlns="http://www.w3.org/2000/svg" xmlns:xlink="http://www.w3.org/1999/xlink" width="3536" height="3536">
	<path transform="matrix(6.90625 0 0 6.90625 0 0.00012207)" d="M214.544 103.183L214.534 78.1841C214.529 55.2982 215.614 56.9611 239.742 56.9573L272.967 56.9653C297.191 57.144 298.076 55.8326 298.078 78.3808L298.066 103.183C306.366 103.774 325.295 111.319 332.211 117.449C335.702 111.734 344.927 103.676 350.021 98.6188C364.16 84.5822 363.709 83.3662 376.946 96.9097L408.694 129.122C412.645 133.092 422.092 139.846 418.149 146.374C414.056 153.149 390.474 171.764 389.7 175.667C390.756 178.421 392.381 180.892 393.806 183.463C398.426 191.802 400.975 201.682 405.194 208.992L428.344 208.971C453.602 208.962 450.432 212.607 450.432 233.894L450.424 276.39C450.418 294.85 445.864 292.804 427.655 292.809L405.194 292.798C402.123 304.749 396.311 316.393 389.7 326.726C395.25 332.253 400.604 337.945 406.128 343.493C417.495 354.909 424.888 357.22 410.445 371.084C408.205 373.234 406.056 375.478 403.886 377.698L372.622 409.887C363.123 419.502 356.775 410.607 349.641 403.413L332.211 385.764C320.141 390.335 310.856 396.633 297.322 400.668L297.366 430.519C297.566 448.839 286.994 444.874 272.439 444.876L239.882 444.868C217.865 444.736 214.54 448.709 214.535 423.155L214.544 399.353C201.177 395.699 192.573 392.313 180.383 385.764C174.907 391.176 169.563 396.709 164.231 402.261C144.408 422.903 143.641 413.892 127.292 397.523L105.934 376.08C100.534 370.711 88.7266 362.72 95.3175 353.886C99.4865 348.298 118.073 329.491 122.247 326.726C116.79 317.702 109.285 303.468 107.508 292.798L82.8376 292.825C73.0194 292.831 62.4341 294.5 62.1107 281.621C61.7406 266.879 62.073 252.048 62.0756 237.298L62.0704 224.845C62.0015 206.877 66.6243 208.923 84.1151 208.973L107.508 208.992C110.622 197.895 115.873 185.281 122.247 175.667C116.485 169.492 110.388 163.558 104.373 157.625C91.7654 145.19 87.9168 144.34 100.435 131.785L128.162 103.906C132.093 99.8716 141.468 87.6959 147.347 87.8531C153.251 88.011 175.458 112.33 180.383 117.449C185.888 111.518 206.402 104.457 214.544 103.183ZM234.4 76.7809C234.075 84.8735 234.417 93.0932 234.416 101.202C234.412 120.079 233.528 118.41 216.608 123.187C208.472 125.484 200.279 128.553 193.007 132.876C178.21 141.672 178.661 144.19 166.493 131.545C161.15 125.993 153.416 117.23 147.101 113.027C139.152 119.875 124.364 135.178 117.641 142.929C123.759 148.364 138.879 162.051 143.566 168.611C148.569 175.613 142.024 181.885 138.381 187.811C133.758 195.332 130.058 203.815 127.479 212.278C125.081 220.149 124.871 229.057 114.536 229.188C103.858 229.324 93.1463 229.122 82.4643 229.122C82.1037 243.676 82.4649 258.338 82.4643 272.904L107.254 272.884C112.151 272.846 118.057 271.208 122.003 275.038C124.171 277.142 132.531 304.042 137.099 312.157C145.058 326.293 149.495 326.642 136.264 340.267C130.249 346.461 123.037 352.779 117.641 359.423C119.986 363.859 142.686 384.203 147.954 390.405C152.099 385.709 156.754 381.492 161.157 377.045C167.111 371.031 172.868 361.171 182.742 364.674C191.885 367.918 200.266 374.494 211.027 378.136C230.584 384.755 234.495 379.213 234.411 402.887L234.4 425.478L278.085 425.478L278.402 425.118C278.106 416.595 277.003 397.604 278.283 389.447C279.445 382.042 288.66 382.477 294.33 380.612C304.114 377.395 313.087 372.925 321.985 367.792C329.478 363.469 333.945 359.328 341.587 366.858C349.332 374.49 356.941 382.468 364.373 390.405C367.972 384.385 387.856 364.772 393.688 359.423C388.469 355.32 373.104 339.975 368.862 334.538C363.59 327.782 369.009 321.594 372.857 315.624C378.284 307.203 382.596 297.581 385.479 287.959C390.19 272.239 388.837 272.893 406.798 272.893C414.584 272.892 422.42 273.121 430.197 272.904L430.197 229.122L407.75 229.127C389.876 229.135 389.777 231.474 384.465 213.263C381.882 204.41 377.956 196.193 373.305 188.254C363.961 172.305 361.879 175.013 376.437 160.447C382.214 154.668 388.19 148.969 393.688 142.929C384.175 132.717 373.77 123.868 364.373 113.027L347.529 129.214C344.195 132.456 340.776 136.456 336.909 139.022C330.814 143.068 324.335 135.383 319.327 132.592C312.129 128.581 304.331 125.38 296.402 123.149C277.133 117.727 278.028 120.645 278.078 100.247L278.085 76.7809L234.4 76.7809Z"/>
	<path transform="matrix(6.90625 0 0 6.90625 0 0.00012207)" d="M261.137 324.324Q259.337 324.452 257.533 324.491Q255.728 324.53 253.924 324.481Q252.12 324.431 250.321 324.293Q248.521 324.155 246.731 323.928Q244.94 323.702 243.163 323.387Q241.386 323.073 239.627 322.672Q237.867 322.271 236.129 321.783Q234.392 321.296 232.68 320.724Q230.968 320.152 229.287 319.496Q227.606 318.84 225.958 318.103Q224.311 317.365 222.702 316.548Q221.094 315.73 219.527 314.834Q217.96 313.939 216.439 312.967Q214.918 311.995 213.447 310.95Q211.976 309.905 210.558 308.788Q209.14 307.672 207.779 306.487Q206.417 305.302 205.116 304.052Q203.814 302.802 202.576 301.489Q201.338 300.176 200.165 298.804Q198.993 297.432 197.889 296.004Q196.786 294.576 195.754 293.096Q194.722 291.615 193.764 290.085Q192.806 288.556 191.925 286.981Q191.043 285.406 190.24 283.79Q189.437 282.174 188.714 280.52Q187.992 278.867 187.351 277.179Q186.711 275.492 186.154 273.775Q185.598 272.059 185.126 270.316Q184.655 268.574 184.269 266.811Q183.884 265.048 183.586 263.268Q183.288 261.488 183.077 259.696Q182.867 257.904 182.745 256.103Q182.623 254.302 182.59 252.498Q182.557 250.694 182.612 248.89Q182.668 247.086 182.812 245.287Q182.956 243.488 183.189 241.698Q183.421 239.908 183.741 238.132Q184.061 236.356 184.469 234.598Q184.876 232.84 185.369 231.104Q185.862 229.368 186.44 227.658Q187.018 225.948 187.679 224.269Q188.34 222.59 189.083 220.945Q189.826 219.3 190.649 217.694Q191.472 216.088 192.373 214.524Q193.274 212.961 194.251 211.443Q195.227 209.925 196.278 208.458Q197.328 206.99 198.449 205.576Q199.57 204.161 200.759 202.804Q201.949 201.447 203.203 200.149Q204.458 198.852 205.775 197.618Q207.092 196.384 208.468 195.216Q209.843 194.048 211.275 192.949Q212.707 191.851 214.191 190.824Q215.675 189.797 217.208 188.844Q218.74 187.891 220.318 187.015Q221.896 186.138 223.515 185.341Q225.134 184.543 226.79 183.826Q228.446 183.109 230.135 182.474Q231.825 181.839 233.543 181.288Q235.262 180.737 237.006 180.272Q238.749 179.806 240.514 179.426Q242.278 179.047 244.059 178.755Q245.84 178.463 247.633 178.258Q249.426 178.054 251.227 177.938Q253.02 177.823 254.817 177.795Q256.614 177.768 258.41 177.828Q260.206 177.889 261.997 178.037Q263.788 178.186 265.57 178.422Q267.351 178.657 269.119 178.98Q270.887 179.303 272.637 179.712Q274.387 180.121 276.115 180.616Q277.842 181.11 279.544 181.688Q281.245 182.266 282.917 182.927Q284.588 183.588 286.224 184.33Q287.861 185.072 289.46 185.893Q291.058 186.714 292.615 187.613Q294.171 188.511 295.682 189.485Q297.192 190.458 298.653 191.504Q300.114 192.551 301.522 193.667Q302.93 194.784 304.282 195.968Q305.634 197.153 306.926 198.402Q308.218 199.651 309.447 200.961Q310.677 202.272 311.84 203.642Q313.004 205.011 314.099 206.436Q315.195 207.861 316.219 209.337Q317.243 210.814 318.194 212.339Q319.145 213.864 320.019 215.434Q320.894 217.003 321.691 218.614Q322.488 220.225 323.205 221.873Q323.922 223.52 324.558 225.201Q325.194 226.882 325.746 228.592Q326.299 230.302 326.767 232.037Q327.235 233.772 327.618 235.528Q328 237.284 328.296 239.057Q328.593 240.829 328.802 242.614Q329.011 244.399 329.132 246.192Q329.253 247.985 329.287 249.782Q329.32 251.579 329.266 253.375Q329.211 255.171 329.069 256.963Q328.926 258.754 328.696 260.536Q328.466 262.319 328.149 264.088Q327.832 265.857 327.429 267.608Q327.026 269.359 326.537 271.089Q326.049 272.818 325.476 274.521Q324.904 276.225 324.248 277.898Q323.593 279.572 322.857 281.211Q322.12 282.85 321.304 284.451Q320.488 286.053 319.595 287.612Q318.702 289.171 317.733 290.685Q316.765 292.199 315.723 293.663Q314.682 295.128 313.57 296.54Q312.458 297.952 311.278 299.307Q310.098 300.663 308.854 301.959Q307.609 303.255 306.302 304.489Q304.996 305.723 303.63 306.891Q302.265 308.059 300.843 309.159Q299.422 310.259 297.949 311.289Q296.476 312.318 294.954 313.273Q293.432 314.229 291.865 315.109Q290.298 315.989 288.69 316.792Q287.082 317.594 285.437 318.317Q283.791 319.039 282.112 319.68Q280.434 320.322 278.725 320.88Q277.017 321.438 275.284 321.912Q273.55 322.386 271.796 322.774Q270.041 323.163 268.27 323.465Q266.498 323.767 264.714 323.982Q262.93 324.197 261.137 324.324ZM253.479 197.812Q252.173 197.872 250.871 197.997Q249.57 198.121 248.276 198.309Q246.982 198.497 245.699 198.749Q244.416 199.001 243.147 199.316Q241.878 199.63 240.626 200.007Q239.373 200.384 238.141 200.821Q236.909 201.259 235.7 201.757Q234.491 202.255 233.308 202.812Q232.125 203.369 230.971 203.983Q229.817 204.598 228.695 205.268Q227.572 205.939 226.484 206.664Q225.396 207.388 224.345 208.166Q223.293 208.944 222.282 209.772Q221.27 210.6 220.301 211.478Q219.331 212.355 218.406 213.279Q217.48 214.202 216.602 215.171Q215.723 216.139 214.893 217.149Q214.063 218.16 213.284 219.21Q212.505 220.26 211.778 221.347Q211.052 222.434 210.379 223.555Q209.707 224.677 209.091 225.83Q208.475 226.983 207.916 228.165Q207.357 229.347 206.858 230.556Q206.358 231.764 205.918 232.995Q205.478 234.227 205.1 235.478Q204.721 236.73 204.405 237.998Q204.088 239.267 203.834 240.549Q203.581 241.832 203.39 243.126Q203.2 244.419 203.074 245.721Q202.947 247.022 202.885 248.328Q202.823 249.634 202.825 250.942Q202.827 252.249 202.894 253.555Q202.961 254.861 203.091 256.162Q203.222 257.463 203.417 258.756Q203.611 260.049 203.869 261.331Q204.127 262.612 204.448 263.88Q204.769 265.147 205.152 266.398Q205.535 267.648 205.979 268.878Q206.422 270.108 206.926 271.314Q207.43 272.521 207.993 273.701Q208.556 274.881 209.176 276.032Q209.796 277.184 210.472 278.303Q211.148 279.422 211.878 280.507Q212.608 281.591 213.391 282.639Q214.174 283.686 215.007 284.693Q215.84 285.701 216.722 286.666Q217.604 287.632 218.533 288.552Q219.461 289.473 220.434 290.347Q221.406 291.221 222.421 292.046Q223.435 292.871 224.489 293.645Q225.543 294.419 226.633 295.14Q227.724 295.861 228.849 296.528Q229.973 297.195 231.13 297.805Q232.286 298.416 233.471 298.969Q234.656 299.521 235.866 300.015Q237.077 300.509 238.31 300.943Q239.544 301.377 240.797 301.749Q242.051 302.122 243.321 302.432Q244.591 302.742 245.875 302.99Q247.159 303.237 248.453 303.421Q249.748 303.605 251.05 303.725Q252.352 303.845 253.658 303.9Q254.965 303.956 256.272 303.948Q257.58 303.939 258.885 303.866Q260.182 303.793 261.475 303.658Q262.767 303.522 264.051 303.323Q265.335 303.124 266.608 302.862Q267.881 302.601 269.139 302.277Q270.398 301.954 271.639 301.569Q272.88 301.185 274.101 300.74Q275.322 300.295 276.519 299.791Q277.717 299.287 278.888 298.725Q280.06 298.163 281.203 297.544Q282.345 296.926 283.456 296.252Q284.567 295.578 285.644 294.851Q286.721 294.123 287.761 293.344Q288.8 292.565 289.801 291.736Q290.802 290.907 291.76 290.03Q292.719 289.153 293.634 288.23Q294.548 287.307 295.417 286.34Q296.285 285.374 297.106 284.366Q297.926 283.358 298.696 282.311Q299.465 281.265 300.183 280.182Q300.901 279.098 301.565 277.981Q302.229 276.864 302.837 275.716Q303.446 274.568 303.997 273.392Q304.549 272.215 305.042 271.013Q305.536 269.811 305.97 268.586Q306.404 267.362 306.777 266.117Q307.151 264.872 307.463 263.611Q307.775 262.35 308.025 261.075Q308.276 259.8 308.463 258.514Q308.651 257.228 308.775 255.935Q308.899 254.641 308.96 253.343Q309.021 252.045 309.019 250.746Q309.016 249.447 308.95 248.149Q308.884 246.851 308.754 245.558Q308.625 244.266 308.432 242.98Q308.239 241.695 307.984 240.421Q307.729 239.147 307.412 237.887Q307.094 236.627 306.716 235.384Q306.337 234.141 305.898 232.918Q305.46 231.695 304.961 230.495Q304.463 229.295 303.907 228.121Q303.351 226.947 302.738 225.801Q302.124 224.655 301.456 223.541Q300.788 222.427 300.066 221.346Q299.344 220.266 298.57 219.222Q297.796 218.179 296.971 217.174Q296.147 216.17 295.275 215.207Q294.403 214.244 293.484 213.324Q292.566 212.405 291.604 211.532Q290.641 210.659 289.637 209.834Q288.634 209.009 287.591 208.234Q286.548 207.459 285.468 206.736Q284.388 206.013 283.275 205.343Q282.161 204.674 281.016 204.06Q279.871 203.446 278.697 202.888Q277.523 202.331 276.324 201.832Q275.124 201.332 273.901 200.892Q272.679 200.452 271.436 200.073Q270.193 199.693 268.934 199.375Q267.674 199.056 266.4 198.8Q265.126 198.543 263.841 198.35Q262.557 198.156 261.264 198.025Q259.971 197.894 258.673 197.827Q257.376 197.76 256.076 197.756Q254.777 197.752 253.479 197.812Z"/>
</svg>
